PathFileType	4	(X/Y/Z)	/Users/mathieubourgeois/Desktop/Analyse/Traitement/Sujet_02/Data/Transformed_Sujet_02_velo_100.trc
DataRate	CameraRate	NumFrames	NumMarkers	Units	OrigDataRate	OrigDataStartFrame	OrigNumFrames
120.000000	120.000000	5	36	mm	120.000000	1646	1882
Frame#	Time	RFHD			RANE			STRN			LANI			LKNE			T10			RHUM			RWRB			C7			LFWT			LTOE			RTOE			LWRA			LBWT			RBWT			RFWT			LKNI			RKNI			RKNE			LANE			RANI			LHEE			RHEE			LHUM			LRAD			RRAD			RWRA			LWRB			LFHD			LBHD			RBHD			RSHO			LSHO			CLAV			LCAR			RCAR			
		X1	Y1	Z1	X2	Y2	Z2	X3	Y3	Z3	X4	Y4	Z4	X5	Y5	Z5	X6	Y6	Z6	X7	Y7	Z7	X8	Y8	Z8	X9	Y9	Z9	X10	Y10	Z10	X11	Y11	Z11	X12	Y12	Z12	X13	Y13	Z13	X14	Y14	Z14	X15	Y15	Z15	X16	Y16	Z16	X17	Y17	Z17	X18	Y18	Z18	X19	Y19	Z19	X20	Y20	Z20	X21	Y21	Z21	X22	Y22	Z22	X23	Y23	Z23	X24	Y24	Z24	X25	Y25	Z25	X26	Y26	Z26	X27	Y27	Z27	X28	Y28	Z28	X29	Y29	Z29	X30	Y30	Z30	X31	Y31	Z31	X32	Y32	Z32	X33	Y33	Z33	X34	Y34	Z34	X35	Y35	Z35	X36	Y36	Z36	

1647	13.71666666666667	69.11963653564452	1467.680541992188	122.033592224121	-382.9871520996094	451.6600646972656	177.3822021484374	-205.9382171630859	1279.480224609375	24.79888725280751	-112.0211944580078	423.1488952636719	-67.12476348876957	-84.23327636718749	852.877685546875	-126.7390670776368	-355.9604797363281	1514.6533203125	26.63897895812975	-58.63276672363284	1176.004760742188	229.4563446044921	175.1416320800781	1024.060546875	163.2216186523437	-130.2328948974609	1567.909057617188	22.07886123657216	-392.4098205566406	1218.21240234375	-96.31867980957043	91.31142425537111	389.22607421875	-129.0183868408203	-226.0443878173828	287.7528686523438	151.8804321289062	219.2093811035157	1045.83447265625	-160.5219879150391	-583.9276123046875	1204.670532226562	-48.01162719726577	-586.82421875	1211.271850585938	73.26432037353501	-414.7947692871094	1228.427978515625	174.2526855468749	-40.81362915039062	829.1591186523438	-29.65583038330083	-92.01525115966798	780.9400634765625	113.7528686523437	-140.1699981689453	822.1079711914062	217.5923767089843	-133.5660705566406	412.7793579101562	-158.1425781250001	-355.3943481445312	454.7361755371094	89.55323028564446	-198.2359313964843	367.2408447265625	-117.9191665649415	-458.4984130859375	458.2411193847656	122.0738830566405	-27.53561973571775	1201.203735351562	-199.0242614746095	31.43714714050296	1241.938110351562	-220.9476623535157	-7.05891847610477	1221.701904296875	274.8937988281249	205.5399780273437	1052.787963867188	222.1482696533203	178.1774139404297	1022.760192871094	-101.386703491211	71.92045593261719	1430.233642578125	-33.01193618774422	0.6404657363891665	1564.942138671875	-51.72985458374033	10.87452888488768	1588.00732421875	105.4353561401366	-115.658432006836	1509.437866210938	173.9822692871093	-94.67163085937499	1509.189819335938	-117.5307083129884	-101.4626312255859	1421.491943359375	7.642964839935203	290.8606262207031	1040.125732421875	-74.37127685546876	293.390625	1018.371337890625	144.0209655761718	
1648	13.725	69.01082611083983	1467.246704101562	123.4909210205077	-379.7147216796875	468.5536804199219	177.9849548339843	-205.8486785888672	1279.605834960938	25.25300025939931	-110.8103256225586	406.6895141601562	-66.90818023681645	-93.52165222167967	838.2537231445312	-128.6656646728516	-355.9506530761719	1514.689697265625	27.05493164062486	-58.76125717163089	1175.653442382812	229.5862274169921	175.1772155761718	1024.051147460938	162.9873046875	-130.3038635253906	1568.000366210938	23.18366241455067	-391.8493041992188	1217.664672851562	-96.92983245849621	89.88555908203126	371.6116638183594	-129.74658203125	-224.5145263671875	303.5707702636719	151.6978149414062	219.4278411865235	1045.835693359375	-160.6217651367188	-583.4982299804688	1205.093017578125	-48.4470596313478	-586.8284912109375	1211.399169921875	72.74181365966783	-414.9031066894531	1228.626342773438	173.5422973632811	-51.58586502075195	812.262451171875	-28.93822479248053	-84.33805084228517	791.7678833007812	114.581428527832	-132.2797088623047	834.5780029296875	219.9714355468749	-135.6178283691406	395.7635192871094	-158.7313995361329	-352.7495727539062	471.4948120117188	89.94689941406243	-199.7144012451172	351.0635070800781	-118.3693084716797	-455.5556335449219	476.0200805664062	122.7480163574218	-26.93094062805173	1201.925537109375	-198.3495025634766	32.12395095825198	1242.697509765625	-220.0825195312501	-7.21792840957645	1221.28564453125	275.1234741210937	205.5548400878906	1052.747314453125	221.9383697509765	178.3488311767578	1022.655456542969	-101.5417633056641	71.82162475585938	1430.143920898438	-31.96730041503914	0.9003088474273744	1565.046508789062	-50.50912857055673	11.05804634094237	1587.733032226562	106.7852020263671	-116.053207397461	1509.512329101562	175.1864013671874	-94.45142364501952	1509.588745117188	-116.3823852539064	-101.5208511352539	1421.59716796875	8.624773979186912	291.0453186035156	1039.980712890625	-74.5171585083008	293.422607421875	1018.396240234375	143.7982940673828	
1649	13.73333333333333	69.09043121337889	1466.765258789062	124.4055633544921	-375.2369689941406	484.7553100585938	178.5465240478515	-206.009033203125	1279.708251953125	25.71119689941396	-115.3211822509765	391.033935546875	-68.56337738037114	-103.198501586914	823.2883911132812	-130.1524047851563	-355.8586120605469	1514.72509765625	27.43646240234361	-58.88535308837893	1175.26904296875	229.6337738037109	175.2468109130859	1024.063720703125	162.6852416992187	-130.3007049560547	1568.121337890625	24.43722343444813	-391.2982482910156	1217.087158203125	-97.53442382812511	86.7894973754883	354.3213195800781	-130.5832214355469	-221.1608123779297	319.6997680664062	151.3673095703124	219.6578674316407	1045.825073242188	-160.7697296142578	-582.991943359375	1205.46044921875	-48.86260604858413	-586.7578125	1211.515869140625	72.26139831542955	-414.9913940429688	1228.897094726562	172.8167114257811	-60.1441307067871	797.7083129882812	-31.18378067016607	-76.15467071533205	806.1181640625	114.9918823242187	-124.7878952026367	847.0970458984375	220.7605438232421	-138.7603149414062	379.5117492675781	-159.4743194580079	-348.4705810546875	488.0218200683594	90.51895904541009	-202.9253997802734	335.3796997070312	-118.8880004882813	-451.4991760253906	492.9270935058594	123.7474746704101	-26.3354682922363	1202.640258789062	-197.724838256836	32.81659698486331	1243.424926757812	-219.2544555664063	-7.353325843811069	1220.82177734375	275.3056640624999	205.5797882080078	1052.732666015625	221.712646484375	178.5161285400391	1022.5302734375	-101.7482604980469	71.82347106933594	1430.064575195312	-30.95115280151375	1.171911597251898	1565.134643554688	-49.1462059020997	11.23334980010985	1587.50439453125	108.1666183471679	-116.3370666503907	1509.400390625	176.2873382568358	-94.06493377685545	1510.025634765625	-115.1893997192384	-101.4766464233398	1421.753662109375	9.517783164977928	291.2122497558594	1039.824340820312	-74.7649383544922	293.4882507324219	1018.427917480469	143.4934997558593	
1650	13.74166666666667	69.01557159423827	1466.388305664062	125.7533645629882	-370.0031127929688	501.3801879882812	179.3849639892577	-205.9959411621094	1279.812133789062	26.16313743591298	-120.3942489624023	375.4873962402344	-69.41935729980473	-113.3614196777344	808.6141967773438	-131.7110290527344	-355.7200317382812	1514.768310546875	27.83200263977037	-59.01983261108401	1174.91064453125	229.6058807373046	175.3014526367187	1024.0400390625	162.3128662109375	-130.2155303955078	1568.209106445312	25.66284751892079	-390.7013244628906	1216.564575195312	-98.20342254638683	82.01302337646486	337.3887023925781	-131.51220703125	-216.1575164794922	336.2682189941406	151.7120971679687	219.8575439453125	1045.8154296875	-160.9831695556641	-582.4569702148438	1205.711059570312	-49.26047134399428	-586.6008911132812	1211.665161132812	71.8023529052733	-414.9698791503906	1229.2626953125	172.0782928466795	-69.83901214599609	782.4840087890625	-33.53452682495123	-67.33386230468751	820.1734008789062	115.7672424316406	-117.1838150024414	859.6549682617188	221.9600219726562	-143.6587677001953	363.6840515136719	-160.3498229980469	-340.8753356933594	503.7142639160156	91.61504364013665	-207.7825622558593	320.2595825195312	-119.6179733276368	-446.6175231933594	509.3506469726562	124.3870849609374	-25.7879886627197	1203.354248046875	-197.1493530273438	33.44831085205081	1244.115844726562	-218.5076293945313	-7.554852485656772	1220.345825195312	275.4238281249999	205.5955352783203	1052.710083007812	221.4315338134765	178.6375885009766	1022.390930175781	-102.0807342529297	71.87928771972656	1430.001708984375	-29.82827949523934	1.497842907905584	1565.232666015625	-47.78737258911142	11.45485305786131	1587.301513671875	109.5417480468749	-116.513900756836	1509.314453125	177.3547515869139	-93.72742462158202	1510.432006835938	-113.9688415527345	-101.4006881713867	1421.852661132812	10.45243453979482	291.330810546875	1039.683227539062	-75.0494842529297	293.5355529785156	1018.477844238281	143.1194610595703	
1651	13.75	68.79858398437499	1466.1396484375	127.4565048217773	-364.2459106445312	516.8133544921875	179.9491577148437	-205.8406066894531	1279.809326171875	26.64242935180654	-125.7827911376953	361.6919250488281	-70.62030029296879	-123.8224258422851	794.3804321289062	-133.3262481689454	-355.5594787597656	1514.818359375	28.22455406188951	-59.1686706542969	1174.55224609375	229.5266876220702	175.3428039550781	1024.047241210938	161.8499755859375	-130.0941772460938	1568.35546875	26.8036880493163	-390.1584167480469	1215.947143554688	-98.82819366455089	75.75950622558595	320.8899230957031	-132.6528778076172	-209.4418640136719	353.1706237792969	152.490737915039	219.9809265136719	1045.802734375	-161.2802886962891	-581.7656860351562	1205.966430664062	-49.66393661499038	-586.3267211914062	1211.799072265625	71.39633941650376	-414.8594055175781	1229.712890625	171.3570861816405	-83.55001068115234	765.6382446289062	-31.73384666442877	-58.71181106567384	834.5620727539062	116.6202239990234	-110.2387466430664	872.488037109375	223.3047485351562	-150.084243774414	348.4140319824219	-161.4377136230469	-335.4282836914062	520.0241088867188	92.2322692871093	-214.1142883300781	305.96728515625	-120.2563247680664	-441.0024719238281	524.589599609375	124.9699020385741	-25.30091285705564	1204.014526367188	-196.7024536132813	33.97244262695315	1244.81640625	-217.8801727294923	-7.758492469787631	1219.870849609375	275.5391235351562	205.6278228759765	1052.711059570312	221.0283050537109	178.7109375	1022.244384765625	-102.4820175170899	71.94464111328125	1429.9921875	-28.61361312866219	1.924480676651007	1565.349243164062	-46.52353286743173	11.6655979156494	1587.09912109375	110.9658126831054	-116.6659545898438	1509.206176757812	178.4664459228514	-93.38735961914061	1510.814208984375	-112.7438430786134	-101.2987365722656	1421.953002929688	11.43860340118398	291.3936157226562	1039.470458984375	-74.89036560058595	293.5733337402344	1018.5263671875	142.6713256835937	
